<svg xmlns="http://www.w3.org/2000/svg" width="50" height="50" viewBox="0 0 50 50">
    <g fill="none" fill-rule="evenodd">
        <circle cx="25" cy="25" r="25" fill="#FC3"/>
        <g fill="#FFF" fill-rule="nonzero">
            <path d="M34.151 20.508c-1.142-.075-2.82.026-4.594.202.51-2.146 1.191-5.125 1.434-6.513.39-2.197-2.625-2.98-3.282-1.263-.656 1.717-2.625 7.549-6.32 8.61-.17.05-.365.15-.365.15L21 33.435S28.22 35 32.425 35c2.115 0 3.55-.379 3.768-2.474.292-2.803.632-6.337.778-8.407.195-2.626-.583-3.46-2.82-3.61zM17.678 21h-3.356c-.74 0-1.322.533-1.322 1.21v10.58c0 .677.581 1.21 1.322 1.21h3.356c.74 0 1.322-.533 1.322-1.21V22.21c0-.677-.608-1.21-1.322-1.21z"/>
        </g>
    </g>
</svg>
