<svg xmlns="http://www.w3.org/2000/svg" width="20" height="20" viewBox="0 0 20 20">
    <path fill="#FF5252" fill-rule="nonzero" d="M8.69.078C4.19.641.566 4.328.066 8.827c-.312 2.812.5 5.374 2.062 7.373l-.75 2.625c-.062.25.125.437.375.375l2.812-.813c1.688 1.063 3.75 1.687 5.937 1.562C15.938 19.7 20 15.388 20 10.014 20 4.077 14.813-.672 8.69.078zM9 4.8c0-.48.4-.8 1-.8s1 .32 1 .8v6.4c0 .48-.4.8-1 .8s-1-.32-1-.8V4.8zm1.002 11.213c-.688 0-1.25-.563-1.25-1.25s.562-1.25 1.25-1.25c.687 0 1.25.563 1.25 1.25s-.563 1.25-1.25 1.25z"/>
</svg>
