<svg xmlns="http://www.w3.org/2000/svg" width="70" height="60" viewBox="0 0 70 60">
    <g fill="none" fill-rule="evenodd">
        <path fill="#FC3" d="M43.004 23.335A3.5 3.5 0 0 1 50 23.5v23a3.5 3.5 0 0 1-6.933.684l-25.193-6.75A3.502 3.502 0 0 1 11 39.5v-8a3.5 3.5 0 1 1 6.714-1.388l25.29-6.777zM43 25.407l-25 6.699v6.291l25 6.699V25.407zM68 10V5a3 3 0 0 0-3-3H5a3 3 0 0 0-3 3v5h66zm0 2H2v43a3 3 0 0 0 3 3h60a3 3 0 0 0 3-3V12zM4 0h62a4 4 0 0 1 4 4v52a4 4 0 0 1-4 4H4a4 4 0 0 1-4-4V4a4 4 0 0 1 4-4zm44 8a2 2 0 1 1 0-4 2 2 0 0 1 0 4zm7 0a2 2 0 1 1 0-4 2 2 0 0 1 0 4zm7 0a2 2 0 1 1 0-4 2 2 0 0 1 0 4zM14.5 30a1.5 1.5 0 0 0-1.5 1.5v8a1.5 1.5 0 0 0 3 0v-8a1.5 1.5 0 0 0-1.5-1.5zm32-8a1.5 1.5 0 0 0-1.5 1.5v23a1.5 1.5 0 0 0 3 0v-23a1.5 1.5 0 0 0-1.5-1.5zm7.15 5.732l5.039-1.76a.928.928 0 0 1 1.203.636l.018.07a1 1 0 0 1-.636 1.202l-5.038 1.76a.928.928 0 0 1-1.203-.636l-.018-.069a1 1 0 0 1 .636-1.203zm5.644 14.08a1 1 0 0 1 .636 1.203l-.018.07a.928.928 0 0 1-1.203.635l-5.039-1.76a1 1 0 0 1-.636-1.202l.019-.07a.928.928 0 0 1 1.203-.636l5.038 1.76zM54 34h6a1 1 0 0 1 0 2h-6a1 1 0 0 1 0-2z"/>
        <path fill="#FC3" d="M20.116 39.82a6 6 0 0 0 11.553 3.15l-1.937-.529a4.001 4.001 0 0 1-7.679-2.093l-1.937-.529z"/>
    </g>
</svg>
