<svg xmlns="http://www.w3.org/2000/svg" width="70" height="60" viewBox="0 0 70 60">
    <path fill="#FC3" fill-rule="evenodd" d="M68 10V5a3 3 0 0 0-3-3H5a3 3 0 0 0-3 3v5h66zm0 2H2v43a3 3 0 0 0 3 3h60a3 3 0 0 0 3-3V12zM4 0h62a4 4 0 0 1 4 4v52a4 4 0 0 1-4 4H4a4 4 0 0 1-4-4V4a4 4 0 0 1 4-4zm44 8a2 2 0 1 1 0-4 2 2 0 0 1 0 4zm7 0a2 2 0 1 1 0-4 2 2 0 0 1 0 4zm7 0a2 2 0 1 1 0-4 2 2 0 0 1 0 4zM32 49v-8.188l14.987-14.66 6.912-6.934a.75.75 0 0 1 .445-.21.75.75 0 0 1 .633.21l6.795 6.794a.75.75 0 0 1 0 1.077L46.987 41.85 40.276 49H32zm22.18-27L51 25.18 55.82 30 59 26.82 54.18 22zm-4.898 5L34 42.053V47h4.957L54 31.718 49.282 27zM11 47h16a1 1 0 0 1 0 2H11a1 1 0 0 1 0-2zm0-6h16a1 1 0 0 1 0 2H11a1 1 0 0 1 0-2zm0-6h16a1 1 0 0 1 0 2H11a1 1 0 0 1 0-2z"/>
</svg>
