<svg xmlns="http://www.w3.org/2000/svg" width="70" height="60" viewBox="0 0 70 60">
    <g fill="#262626" fill-rule="evenodd">
        <path d="M68 10V5a3 3 0 0 0-3-3H5a3 3 0 0 0-3 3v5h66zm0 2H2v43a3 3 0 0 0 3 3h60a3 3 0 0 0 3-3V12zM4 0h62a4 4 0 0 1 4 4v52a4 4 0 0 1-4 4H4a4 4 0 0 1-4-4V4a4 4 0 0 1 4-4zm44 8a2 2 0 1 1 0-4 2 2 0 0 1 0 4zm7 0a2 2 0 1 1 0-4 2 2 0 0 1 0 4zm7 0a2 2 0 1 1 0-4 2 2 0 0 1 0 4z"/>
        <path d="M35 46c-8.1 0-15.434-4-22-12 6.566-8 13.9-12 22-12s15.434 4 22 12c-6.566 8-13.9 12-22 12zm0-2c6.996 0 13.329-3.333 19-10-5.671-6.667-12.004-10-19-10s-13.329 3.333-19 10c5.671 6.667 12.004 10 19 10z"/>
        <path d="M35 40a6 6 0 1 1 0-12 6 6 0 0 1 0 12zm0-2a4 4 0 1 0 0-8 4 4 0 0 0 0 8z"/>
    </g>
</svg>
