<svg xmlns="http://www.w3.org/2000/svg" width="70" height="60" viewBox="0 0 70 60">
    <g fill="#FC3" fill-rule="evenodd">
        <path d="M68 10V5a3 3 0 0 0-3-3H5a3 3 0 0 0-3 3v5h66zm0 2H2v43a3 3 0 0 0 3 3h60a3 3 0 0 0 3-3V12zM4 0h62a4 4 0 0 1 4 4v52a4 4 0 0 1-4 4H4a4 4 0 0 1-4-4V4a4 4 0 0 1 4-4zm44 8a2 2 0 1 1 0-4 2 2 0 0 1 0 4zm7 0a2 2 0 1 1 0-4 2 2 0 0 1 0 4zm7 0a2 2 0 1 1 0-4 2 2 0 0 1 0 4z"/>
        <path d="M35 28c3.85 0 7 3.15 7 7s-3.15 7-7 7-7-3.15-7-7 3.15-7 7-7zm0 12.102c2.778 0 5-2.357 5-5.051C40 32.245 37.778 30 35 30s-5 2.245-5 5.051 2.222 5.051 5 5.051V41v-.898z"/>
        <path d="M48.461 38.476c-.253 1.264-.758 2.401-1.39 3.412l2.022 2.908-4.045 4.17-2.907-2.022c-1.01.632-2.148 1.138-3.412 1.517L38.097 52h-5.814l-.632-3.539c-1.264-.253-2.402-.758-3.54-1.39l-2.907 2.022-4.17-4.045 2.022-2.907c-.759-1.01-1.138-2.148-1.517-3.412L18 38.097v-5.814l3.539-.632c.253-1.264.758-2.402 1.39-3.54l-2.022-2.907 4.045-4.17 2.907 2.022c1.01-.759 2.148-1.138 3.412-1.517L31.903 18h5.814l.632 3.539c1.264.253 2.402.758 3.54 1.39l2.907-2.022 4.17 4.171-2.022 2.907c.759 1.011 1.138 2.149 1.517 3.413L52 32.03v5.814l-3.539.632zm-1.643-1.011v-.632l3.16-.632v-2.655l-3.16-.505-.127-.632c-.252-1.517-.884-2.78-1.643-4.045l-.379-.505 1.896-2.655-1.896-1.895-2.654 1.895-.506-.379c-1.264-.758-2.654-1.39-4.044-1.643l-.632-.126-.632-3.16h-2.655l-.505 3.16-.632.126c-1.517.253-2.78.885-4.045 1.643l-.505.38-2.655-1.77-1.895 1.896 1.895 2.654-.379.506c-.758 1.264-1.39 2.654-1.643 4.044l-.126.632-3.16.632v2.655l3.16.505.126.632c.253 1.517.885 2.78 1.643 4.045l.253.505-1.77 2.655 1.896 1.895 2.655-1.895.505.379c1.264.758 2.655 1.39 4.045 1.643l.758.126.632 3.16h2.655l.505-3.16.632-.126c1.517-.253 2.78-.885 4.045-1.643l.505-.38 2.655 1.77 1.895-1.896-1.895-2.654.379-.506c.758-1.264 1.39-2.654 1.643-4.044z"/>
    </g>
</svg>
