<svg xmlns="http://www.w3.org/2000/svg" width="30" height="30" viewBox="0 0 30 30">
    <g fill="none" fill-rule="evenodd">
        <circle cx="14.893" cy="14.893" r="14.893" fill="#4D76A1" fill-rule="nonzero"/>
        <path fill="#FFF" d="M14.33 21.425h1.17s.353-.038.533-.233c.166-.178.16-.513.16-.513s-.022-1.569.706-1.8c.717-.227 1.639 1.516 2.616 2.187.738.507 1.3.396 1.3.396l2.611-.037s1.366-.084.718-1.158c-.053-.088-.377-.795-1.941-2.247-1.638-1.52-1.419-1.274.554-3.903 1.201-1.601 1.682-2.579 1.532-2.997-.144-.4-1.027-.294-1.027-.294l-2.94.019s-.219-.03-.38.067c-.158.094-.26.315-.26.315s-.465 1.24-1.086 2.293c-1.31 2.223-1.833 2.34-2.047 2.203-.498-.322-.373-1.293-.373-1.983 0-2.154.326-3.053-.637-3.285-.32-.078-.555-.129-1.372-.137-1.05-.01-1.937.003-2.44.25-.335.164-.593.529-.436.55.195.026.635.118.868.436.302.41.291 1.33.291 1.33s.173 2.537-.404 2.852c-.397.216-.94-.225-2.108-2.242a18.752 18.752 0 0 1-1.05-2.176s-.087-.213-.242-.327c-.188-.138-.452-.183-.452-.183l-2.794.019s-.42.011-.573.194c-.137.162-.011.498-.011.498s2.187 5.118 4.664 7.697c2.272 2.365 4.85 2.21 4.85 2.21z"/>
    </g>
</svg>
