<svg xmlns="http://www.w3.org/2000/svg" width="30" height="31" viewBox="0 0 30 31">
    <g fill="none" fill-rule="nonzero">
        <circle cx="14.893" cy="15.158" r="14.893" fill="#DC4E41"/>
        <path fill="#DC4E41" d="M5.185 15.825c-.053 2.563 1.712 5.008 4.14 5.806 2.287.768 5.099.193 6.62-1.765 1.112-1.373 1.364-3.202 1.244-4.911-1.959-.018-3.917-.012-5.873-.01-.003.699 0 1.394.003 2.091 1.173.033 2.346.018 3.519.041-.296 1.015-.97 1.959-1.994 2.325-1.976.871-4.498-.267-5.12-2.34-.75-1.984.479-4.38 2.507-4.957 1.258-.443 2.554.055 3.63.71a27.771 27.771 0 0 0 1.557-1.607c-1.223-1.024-2.794-1.651-4.41-1.513-3.17.037-5.943 2.964-5.823 6.13zM21 13.186c-.005.584-.011 1.17-.014 1.753-.587.006-1.17.01-1.754.012V16.7c.584.003 1.17.005 1.754.012.006.583.006 1.166.011 1.753.581 0 1.165-.003 1.748 0 .003-.587.006-1.17.012-1.756l1.753-.01v-1.747c-.583-.003-1.17-.005-1.753-.011l-.012-1.754H21z"/>
        <g fill="#FFF">
            <path d="M5.185 15.825c-.12-3.166 2.653-6.093 5.823-6.13 1.616-.138 3.187.49 4.41 1.512a27.863 27.863 0 0 1-1.557 1.607c-1.076-.654-2.372-1.152-3.63-.71-2.029.578-3.257 2.974-2.507 4.958.622 2.073 3.143 3.21 5.12 2.34 1.023-.366 1.697-1.31 1.993-2.325-1.172-.023-2.345-.009-3.518-.041-.003-.698-.006-1.393-.003-2.09 1.956-.003 3.914-.01 5.873.008.12 1.71-.132 3.54-1.244 4.911-1.521 1.959-4.333 2.534-6.62 1.765-2.427-.797-4.193-3.242-4.14-5.805zM21 13.186h1.745l.012 1.753c.583.006 1.17.01 1.753.012V16.7l-1.753.008c-.006.587-.009 1.17-.012 1.757-.583-.003-1.167 0-1.748 0-.005-.587-.005-1.17-.011-1.754-.584-.006-1.17-.008-1.754-.012v-1.747a353.03 353.03 0 0 0 1.754-.012c.003-.583.008-1.17.015-1.753z"/>
        </g>
    </g>
</svg>
