<svg xmlns="http://www.w3.org/2000/svg" width="30" height="30" viewBox="0 0 30 30">
    <g fill="none" fill-rule="nonzero">
        <circle cx="15" cy="15" r="15" fill="#61A8DE"/>
        <path fill="#FFF" d="M21.92 7.538L4.486 14.332c-.565.22-.53 1.03.05 1.202l4.43 1.308 1.654 5.246a.76.76 0 0 0 1.27.304l2.29-2.339 4.494 3.3a.938.938 0 0 0 1.473-.565l2.977-14.231a.897.897 0 0 0-1.204-1.02zm-2.186 3.158l-8.098 7.161a.435.435 0 0 0-.144.277l-.312 2.772c-.01.09-.136.102-.163.016l-1.283-4.134a.435.435 0 0 1 .186-.499l9.563-5.93c.22-.137.445.166.251.337z"/>
    </g>
</svg>
