<svg xmlns="http://www.w3.org/2000/svg" width="21" height="20" viewBox="0 0 21 20">
    <path fill="#FFF" fill-rule="nonzero" d="M6.36 19.678c-1.762.92-3.357-.23-3.02-2.178l.79-4.576-3.35-3.24c-1.424-1.38-.816-3.24 1.154-3.524l4.63-.668 2.07-4.163c.88-1.771 2.851-1.772 3.732 0l2.07 4.163 4.63.668c1.969.284 2.579 2.144 1.153 3.523l-3.35 3.241.791 4.576c.337 1.947-1.257 3.098-3.02 2.178l-4.14-2.16-4.14 2.16zm3.09-3.864a2.382 2.382 0 0 1 2.1 0L15.754 18l-.802-4.631c-.12-.689.142-1.488.649-1.978l3.4-3.28-4.699-.675c-.698-.1-1.386-.594-1.7-1.223L10.5 2 8.399 6.213c-.313.627-1 1.122-1.7 1.223L2 8.11l3.4 3.28c.505.488.77 1.287.65 1.978L5.246 18l4.202-2.186z"/>
</svg>
