<svg xmlns="http://www.w3.org/2000/svg" width="30" height="30" viewBox="0 0 30 30">
    <g fill="none" fill-rule="nonzero">
        <circle cx="15" cy="15" r="15" fill="#FF991B"/>
        <path fill="#FFF" d="M20.685 17.102c-.618.635-1.363 1.094-2.19 1.415-.78.303-1.637.455-2.485.557.128.14.189.208.268.287 1.15 1.157 2.307 2.308 3.454 3.468.39.395.472.885.257 1.344-.235.503-.762.833-1.279.797-.327-.022-.582-.185-.809-.413-.868-.874-1.753-1.732-2.603-2.622-.248-.26-.367-.21-.586.015-.873.9-1.761 1.785-2.654 2.665-.401.396-.878.468-1.343.241-.495-.239-.81-.744-.785-1.252.017-.342.186-.605.421-.84 1.14-1.136 2.275-2.276 3.41-3.415.076-.076.146-.156.255-.274-1.549-.162-2.946-.543-4.142-1.478-.148-.116-.301-.229-.436-.359-.524-.503-.577-1.079-.163-1.672.355-.507.95-.643 1.568-.351.12.056.234.127.343.202 2.228 1.532 5.29 1.574 7.528.069.221-.17.458-.309.733-.379.533-.138 1.032.059 1.318.526.327.534.324 1.054-.08 1.469zM15.021 5c2.796.008 5.041 2.295 5.027 5.123-.014 2.762-2.296 5.001-5.088 4.992-2.764-.01-5.03-2.3-5.014-5.069A5.065 5.065 0 0 1 15.021 5zm-.008 7.534a2.458 2.458 0 0 0 2.459-2.48A2.463 2.463 0 0 0 15 7.583a2.467 2.467 0 0 0-2.478 2.5 2.464 2.464 0 0 0 2.49 2.45z"/>
    </g>
</svg>
