<svg xmlns="http://www.w3.org/2000/svg" width="100" height="58" viewBox="0 0 100 58">
    <g fill="none" fill-rule="evenodd">
        <path fill="#F5F5F5" d="M94.137 40.986l-.268-.13-.147-.074-.174-.095-.203-.113c-.073-.04-.147-.087-.227-.136a10.223 10.223 0 0 1-1.12-.786c-.419-.335-.872-.751-1.33-1.256-.92-1.003-1.82-2.385-2.56-4.022-.744-1.636-1.333-3.513-1.835-5.483-.501-1.972-.89-3.85-1.301-5.535-.406-1.686-.834-3.18-1.287-4.407a20.22 20.22 0 0 0-1.397-3.06l-.117-.198a7.692 7.692 0 0 0-.185-.31l-.157-.254.204.218c.068.071.149.161.242.27l.152.176.166.206c.471.58 1.1 1.474 1.724 2.67.627 1.192 1.238 2.683 1.777 4.37.546 1.686 1.023 3.562 1.519 5.509.495 1.946.982 3.777 1.574 5.381.587 1.604 1.282 2.978 2.022 4.035a12.494 12.494 0 0 0 2.037 2.301c.069.06.133.12.196.172l.177.145.152.125a83.384 83.384 0 0 0 .366.281"/>
        <path fill="#BDBDBD" d="M62.758 26.975s-5.003 11.504 2.834 15.981c0 0 2.223 3.634 1.86 9.494l-.871 2.533 1.686-.607c1.675 1.129 1.676-2.603 1.676-2.603s1.177-9.375-.178-11.52c0 0-.348-1.816 1.022-3.326 0 0 5.182-6.394-.826-15.503-3.217-4.88-7.203 5.55-7.203 5.55"/>
        <path fill="#29190D" d="M69.846 52.949c-.756-.194-1.63-.346-2.44-.366l-.825 2.4 1.686-.607c1.028.693 1.425-.445 1.58-1.427"/>
        <path fill="#E8C1B5" d="M61.94 38.74c1.934 1.323-.169 5.947 2.59 5.724.031.883-.414 2.542.474 2.764 1.525.452.94-1.929.787-2.682.624-.148 1.441-.36 2.083-.003 1.152.592-.085-.432.574.43.13.121-.743 2.722 1.079 2.097.504-.173.068-1.646.05-2.15l2.01-.07c-.211 1.144-.18 3.221 1.583 2.093.562-1.144-.82-1.868-.474-2.764.355-.645 1.728-.945 2.065-2.094.679-2.173.353-4.31-1.684-4.997-2.17-.935-4.796-.465-6.905.368-.866.409-1.485.683-2.481.97-.628.023-.893-.347-1.634.058"/>
        <path fill="#BDBDBD" d="M27.75 54.933s.754.132 2.74-.65l.794.13s-.318-1.779-.576-2.365c0 0 1.46-.427.84-2.388 0 0 2.146-5.408 2.73-8.999 0 0 3.595-7.861-.004-9.164-3.598-1.302-6.097 1.76-6.097 1.76s3.5 12.018-.428 21.676z"/>
        <path fill="#F5F5F5" d="M36.093 33.22s3.5 12.016-.427 21.674c0 0 .755.133 2.74-.65l.795.13s.33-1.365.074-1.95c0 0 1.301-.169.68-2.131 0 0 1.655-6.079 2.24-9.67 0 0 3.595-7.862-.004-9.164-3.599-1.302-6.098 1.76-6.098 1.76M10.455 10.116C8.837 14.218 5.174 17.38 1.19 18.53c-.014 6.826 2.698 5.214 8.226 5.021 5.277-.184 10.113 1.417 12.657-4.992 1.384-3.588 1.406-10.161-2.451-12.555-4.118-2.637-7.79.272-9.157 4.365"/>
        <path fill="#F5F5F5" d="M83.889 16.4C77.798 1.593 76.196 5.04 64.474 7.978 58.738 9.442 36.77 7.343 31 7.797c-3.76.384-8.5 1.56-11.388-1.878L19 9.985c-2.649 3.38-2.777 6.923-.894 10.397 2.177 4.727 7.3 7.162 8.732 12.168 1.693 5.25 5.075 8.418 10.603 8.225 4.774-.167 9.09.946 14.107.518 9.783-.847 17.673 6.112 24.053-2.862 1.597-2.246 14.336-7.326 8.288-22.03"/>
        <path fill="#000" d="M39.632 9.856c-.353 4.31 6.361 2.053 8.684 3.741 2.835 1.923 1.424 4.754 5.256 6.39 2 .652 4.59-1.61 7.948-1.003 3.36.608 8.248 3.723 8.843-.848.622-3.814-4.915-3.873-1.512-7.278 1.614-1.958 5.915-2.421 4.106-5.214-2.135.444-4.812 1.414-8.483 2.334-3.86.985-15.074.356-23.753-.022-.595.505-.998 1.124-1.09 1.9zM28.963 21.351c.789.984 4.386 3.134 5.418 3.856 2.314 1.436 5.348 1.836 8.12 1.992 4.792.338 8.027-4.26 3.316-5.93-8.18-3.265-6.986-6.254-11.871-8.53-4.886-2.276-10.22 2.728-4.983 8.612zM85.124 20.309a22.893 22.893 0 0 0-1.235-3.909c-.799-1.94-1.52-3.567-2.197-4.923-7.764 2.99-3.7 10.018 3.432 8.832"/>
        <path fill="#F5F5F5" d="M73.815 26.589s-5.003 11.504 2.834 15.981c0 0 2.387 3.544 2.022 9.405l-1.033 2.622 1.686-.607c1.675 1.129 1.79-1.68 1.79-1.68s1.854-10.005.5-12.15c0 0-1.14-2.109.23-3.619 0 0 5.181-6.394-.827-15.503-3.217-4.88-7.202 5.55-7.202 5.55"/>
        <path fill="#E8C1B5" d="M17.608 5.829a6.638 6.638 0 0 0 5.128-.811c.867-.41 1.948-1.838 3.101-1.246 1.032.722.604 2.886.128 3.66-1.316 1.942-4.677 2.944-6.718 2.131-1.148-.465-3.488-2.658-1.505-3.486"/>
        <path fill="#000" d="M15.523 3.753c-1.525-.452-4.194-1.244-4.752.798.507.109 1.144.34 1.768.191-1.001.161-1.871.444-2.218 1.341.252-.009.507.109.633.104-.736.532-1.593 1.194-1.814 2.086l1.005-.035c-.615.4-.723.91-.956 1.424 1.39.203 2.728-1.107 3.832-1.904.005.127.018.505-.103.636 1.135.086 1.858-.823 2.585-1.607 1.43 1.34 2.984-.99 1.065-1.933-.005-.126.255.117.246-.135-.273-.622-.914-.98-1.668-.953"/>
        <path fill="#FF5252" d="M1.81 18.396S.27 17.566.64 20.965c0 0 .357 3.02 1.439 1.592 0 0 .932 1.484 1.646.322 0 0 1.072-5.345-1.917-4.483"/>
        <path fill="#29190D" d="M39.201 54.374s.166-.683.171-1.29c-.794-.33-1.91-.493-2.934-.43a22.386 22.386 0 0 1-.772 2.24s.755.133 2.74-.65l.795.13z"/>
        <path fill="#000" d="M75.978 25.274c-4.228 1.412-8.267-.381-12.288-.241-2.018-.182-5.349 1.865-4.705 5.888.626 3.517 5.15 3.359 7.662 3.271 3.778.121 10.554-.368 13.204-3.747 2.164-2.857-.186-5.302-3.955-5.17M69.986 52.944c-.757-.193-1.63-.345-2.44-.366l-.825 2.4 1.685-.607c1.028.693 1.426-.445 1.58-1.427M39.34 54.37s.166-.684.172-1.292c-.795-.33-1.91-.492-2.934-.43a22.386 22.386 0 0 1-.772 2.242s.754.132 2.74-.651l.795.13zM31.074 52.766a11.66 11.66 0 0 0-2.24-.716 22.804 22.804 0 0 1-.945 2.878s.755.133 2.74-.65l.795.13s-.163-.91-.35-1.642M78.818 51.835l-.007.135-1.034 2.622 1.686-.607c1.675 1.129 1.791-1.68 1.791-1.68s.026-.137.068-.38c-.836-.071-1.673-.186-2.504-.09M91.52 38.929s.02 1.67.903 3.086c.913 1.463 2.714 2.68 4.173 2.972-.855-.476-1.387-1.3-1.919-2.124 1.854.272 2.054.6 4.064.53 2.01-.07-2.227-.763-3.447-2.068.843.139 1.514.115 2.363.423-2.423-2.148-6.136-2.82-6.136-2.82zM21.926 7.866c-1.075.46-3.246.704-3.957-.451l-.078.17c.839 2.415 6.43 1.63 7.194-.503.839-2.389-2.25.415-3.16.784"/>
        <path fill="#E0E0E0" d="M17.304 11.822c.058 1.655-1.461 3.052-3.392 3.12-1.934.067-3.546-1.22-3.604-2.876-.058-1.655 1.46-3.053 3.394-3.12 1.931-.068 3.544 1.221 3.602 2.876"/>
        <path fill="#000" d="M14.323 12.425a1.5 1.5 0 1 1-2.999.105 1.5 1.5 0 0 1 2.999-.105"/>
    </g>
</svg>
