<svg xmlns="http://www.w3.org/2000/svg" width="154" height="85" viewBox="0 0 154 85">
    <g fill="none" fill-rule="evenodd">
        <path fill="#FFFFFB" d="M145.779 64.267l-.414-.221-.227-.123-.268-.16-.313-.187c-.11-.068-.225-.147-.348-.227a16.067 16.067 0 0 1-1.716-1.299 18.074 18.074 0 0 1-2.018-2.048c-1.39-1.63-2.728-3.851-3.8-6.467-1.08-2.615-1.902-5.601-2.582-8.727-.68-3.13-1.188-6.105-1.74-8.778-.545-2.675-1.136-5.05-1.78-7.005-.637-1.955-1.313-3.489-1.84-4.522l-.186-.368-.172-.318a12.112 12.112 0 0 0-.274-.497l-.233-.408.309.354c.102.115.224.262.364.439l.23.284c.078.104.16.215.25.332.708.938 1.645 2.38 2.56 4.295.92 1.91 1.797 4.29 2.552 6.973.764 2.682 1.411 5.66 2.082 8.75.671 3.09 1.336 5.996 2.178 8.551.834 2.556 1.849 4.755 2.954 6.46a19.66 19.66 0 0 0 3.073 3.73c.105.1.202.196.297.282l.27.238.233.205.198.163.36.299"/>
        <path fill="#BDBDBD" d="M97.269 40.502s-8.489 17.822 3.574 25.296c0 0 3.291 5.839 2.398 15.038l-1.505 3.935 2.68-.861c2.57 1.868 2.776-4.002 2.776-4.002s2.363-14.684.352-18.134c0 0-.447-2.875 1.787-5.175 0 0 8.488-9.773-.447-24.434-4.785-7.852-11.615 8.337-11.615 8.337"/>
        <path fill="#29190D" d="M106.975 81.751c-1.177-.345-2.542-.633-3.813-.709l-1.426 3.73 2.68-.863c1.577 1.147 2.264-.62 2.56-2.158"/>
        <path fill="#E8C1B5" d="M95.339 58.966c2.963 2.187-.592 9.344 3.753 9.145 0 1.392-.79 3.977.593 4.374 2.37.795 1.58-2.982 1.382-4.175.988-.199 2.284-.486 3.272.11 1.777.994-.11-.685.878.707.197.199-1.317 4.242 1.579 3.358.802-.244.197-2.584.197-3.38h3.161c-.395 1.79-.46 5.06 2.37 3.38.945-1.767-1.185-2.982-.592-4.374.592-.994 2.765-1.391 3.358-3.18 1.185-3.38.79-6.76-2.37-7.953-3.359-1.59-7.507-.994-10.865.199-1.383.596-2.37.994-3.95 1.391-.988 0-1.383-.596-2.569 0"/>
        <path fill="#BDBDBD" d="M40.755 82.56s1.177.25 4.34-.873l1.24.249s-.403-2.815-.775-3.751c0 0 2.316-.592 1.448-3.711 0 0 3.667-8.39 4.783-14.006 0 0 6.076-12.17.496-14.416-5.58-2.247-9.672 2.434-9.672 2.434s4.836 19.096-1.86 34.074z"/>
        <path fill="#FFFFFB" d="M55.05 48.86s4.836 19.097-1.86 34.074c0 0 1.177.25 4.34-.873l1.24.25s.594-2.13.222-3.066c0 0 2.054-.193 1.185-3.314 0 0 2.933-9.472 4.049-15.089 0 0 6.076-12.17.496-14.416-5.58-2.246-9.673 2.434-9.673 2.434M16.053 11.108C13.286 17.471 7.36 22.243 1.038 23.834c-.395 10.738 3.951 8.352 12.644 8.352 8.297 0 15.805 2.783 20.151-7.159C36.203 19.46 36.6 9.12 30.672 5.143c-6.322-4.374-12.249 0-14.62 6.363"/>
        <path fill="#FFFFFB" d="M131.033 25.028C122.28 1.399 119.575 6.734 101.004 10.71c-9.087 1.988-43.47-2.52-52.558-2.123-5.927.397-13.435 1.988-17.78-3.58l-1.187 6.363c-4.345 5.17-4.741 10.738-1.975 16.306 3.161 7.556 11.071 11.668 13.047 19.622 2.37 8.35 7.508 13.52 16.2 13.52 7.507 0 14.224 1.989 22.126 1.592 15.41-.796 27.42 10.584 37.932-3.182 2.63-3.445 22.917-10.738 14.224-34.201"/>
        <path fill="#000" d="M61.887 12.301c-.79 6.76 9.879 3.58 13.434 6.363 4.347 3.181 1.976 7.556 7.903 10.34 3.106 1.137 7.297-2.281 12.538-1.14 5.242 1.14 12.75 6.31 13.935-.849 1.185-5.965-7.507-6.362-1.976-11.532 2.642-2.992 9.421-3.484 6.734-7.976-3.377.58-7.635 1.959-13.451 3.204-6.116 1.338-23.691-.267-37.301-1.338-.963.76-1.63 1.712-1.816 2.928zM44.502 29.799c1.185 1.591 6.717 5.17 8.297 6.363 3.556 2.386 8.298 3.182 12.645 3.58 7.506.795 12.839-6.261 5.531-9.148C58.31 25.01 60.347 20.373 52.8 16.524c-7.547-3.848-16.2 3.73-8.297 13.275zM132.758 31.244c-.344-1.935-.905-4.004-1.725-6.216-1.147-3.098-2.19-5.696-3.18-7.867-12.356 4.277-6.36 15.557 4.905 14.083"/>
        <path fill="#FFFFFB" d="M114.654 40.502s-8.489 17.822 3.574 25.296c0 0 3.554 5.706 2.66 14.905l-1.767 4.068 2.681-.861c2.57 1.868 2.905-2.544 2.905-2.544s3.46-15.637 1.45-19.087c0 0-1.675-3.38.56-5.68 0 0 8.488-9.773-.448-24.434-4.784-7.852-11.615 8.337-11.615 8.337"/>
        <path fill="#E8C1B5" d="M27.52 4.756c2.766.796 5.729.398 8.1-.994 1.382-.596 3.16-2.783 4.938-1.79 1.58 1.194.79 4.574 0 5.767-2.173 2.982-7.507 4.373-10.667 2.982-1.778-.795-5.334-4.374-2.173-5.567"/>
        <path fill="#000" d="M24.36 1.376C21.99.581 17.84-.81 16.853 2.37c.79.2 1.778.597 2.766.398-1.58.199-2.963.597-3.555 1.988.394 0 .79.2.988.2-1.186.795-2.568 1.789-2.963 3.18h1.58c-.988.596-1.185 1.392-1.58 2.187 2.172.397 4.345-1.59 6.123-2.783 0 .199 0 .795-.198.994 1.778.198 2.963-1.193 4.148-2.386 2.173 2.187 4.74-1.392 1.778-2.982 0-.199.395.199.395-.199-.395-.994-1.382-1.59-2.568-1.59"/>
        <path fill="#FF5252" d="M2.02 23.659S-.35 22.267.044 27.635c0 0 .396 4.772 2.173 2.584 0 0 1.383 2.386 2.568.597 0 0 1.976-8.35-2.765-7.157"/>
        <path fill="#29190D" d="M58.77 82.31s.297-1.066.34-2.022c-1.23-.562-2.974-.879-4.585-.836a35.274 35.274 0 0 1-1.336 3.482s1.179.25 4.34-.873l1.241.25z"/>
        <path fill="#000" d="M118.123 38.553c-6.717 1.988-12.962-1.055-19.284-1.055-3.16-.396-8.503 2.64-7.713 9.004.79 5.567 7.902 5.567 11.854 5.567 5.927.398 16.594 0 20.941-5.17 3.556-4.374 0-8.35-5.927-8.35M107.195 81.751c-1.177-.345-2.542-.633-3.813-.709l-1.427 3.73 2.681-.863c1.577 1.147 2.263-.62 2.559-2.158M58.99 82.31s.297-1.066.339-2.022c-1.23-.562-2.974-.879-4.585-.836a35.274 35.274 0 0 1-1.335 3.482s1.178.25 4.34-.873l1.24.25zM46.094 79.333a18.301 18.301 0 0 0-3.477-1.248 35.934 35.934 0 0 1-1.643 4.475s1.178.25 4.34-.874l1.24.25s-.207-1.44-.46-2.603M121.127 80.492l-.02.211-1.766 4.068 2.68-.861c2.57 1.868 2.906-2.544 2.906-2.544s.047-.215.127-.596c-1.31-.157-2.618-.383-3.927-.278M141.784 60.887s-.063 2.627 1.247 4.904c1.353 2.352 4.116 4.366 6.39 4.904-1.316-.795-2.107-2.12-2.897-3.446 2.898.53 3.193 1.058 6.354 1.058 3.16 0-3.456-1.323-5.3-3.443 1.317.264 2.37.264 3.688.795-3.688-3.512-9.482-4.772-9.482-4.772zM34.19 8.199c-1.712.663-5.137.928-6.19-.928l-.131.265c1.184 3.844 10.008 2.916 11.325-.398 1.449-3.71-3.555.53-5.004 1.06"/>
        <path fill="#E0E0E0" d="M26 14.5c0 2.485-2.686 4.5-5.998 4.5C16.685 19 14 16.985 14 14.5c0-2.483 2.685-4.5 6.002-4.5C23.314 10 26 12.017 26 14.5"/>
        <path fill="#000" d="M20 14.5a1.5 1.5 0 1 1-3 0 1.5 1.5 0 0 1 3 0"/>
    </g>
</svg>
