<svg xmlns="http://www.w3.org/2000/svg" width="50" height="74" viewBox="0 0 50 74">
    <g fill="none" fill-rule="nonzero">
        <path fill="#00BD4D" d="M35.216 2.583A23.36 23.36 0 0 0 24.659 0a23.212 23.212 0 0 0-10.855 2.603C6.227 6.52 1 14.446 1 23.52c0 7.059 3.107 13.39 8.029 17.7 3.639 3.19 6.548 7.11 8.624 11.459h5.365L24.668 54l1.316-1.322h2.88l1.05.986 1.394-.986.044.022c2.138-4.42 5.16-8.371 8.838-11.674C44.984 36.721 48 30.473 48 23.52v-.002c0-9.125-5.194-17.036-12.784-20.934z"/>
        <g fill="#B8603F">
            <path d="M22.04 66.533l-1.518.074-.389-7.919-.077-1.566 1.518-.074.081 1.64zM29.177 57.122l-.077 1.566-.389 7.919-1.518-.074.385-7.845.08-1.64zM25.377 57.083v9.488h-1.52v-9.486z"/>
        </g>
        <path fill="#B8603F" d="M30 66v3.222C30 71.86 27.84 74 25.177 74h-1.354C21.161 74 19 71.86 19 69.222V66h11z"/>
        <path fill="#AD441D" d="M22.172 69.222V66H19v3.222C19 71.86 21.127 74 23.748 74h1.332c.315 0 .622-.032.92-.09a4.773 4.773 0 0 1-3.828-4.688z"/>
        <path fill="#00AD47" d="M20 53.418l-.81.582-1.66-.582h-.002c-2.061-4.388-4.948-8.342-8.56-11.56C4.084 37.509 1 31.12 1 24h8.488c0 7.121 1.96 13.509 5.068 17.86 2.299 3.218 4.135 7.17 5.444 11.558zM13.992 3C14.6 3.681 15.27 4.304 16 4.859 12.18 9.162 9.678 16.153 9.678 24H1C1 14.89 6.304 6.932 13.992 3z"/>
        <path fill="#FB0" d="M30.747 24H41c0 7.081-1.995 13.445-5.165 17.83-2.428 3.358-4.424 7.374-5.84 11.866L28.555 55 27 53.696c.483-4.492 1.164-8.508 1.99-11.866 1.078-4.385 1.757-10.749 1.757-17.83zM40 23h-9.57c0-6.367-.547-12.137-1.43-16.33.917-.242 1.199-2.15 2.032-2.57.832-.42 2.216.65 2.943.076C37.625 8.39 40 15.251 40 23zM24 53.779L22.574 55l-1.562-1.221c-1.372-4.442-3.295-8.443-5.703-11.7C12.054 37.674 10 31.208 10 24h10.251c0 7.209.7 13.675 1.807 18.078.82 3.258 1.474 7.259 1.942 11.7zM21 6.672c-.887 4.2-1.439 9.98-1.439 16.328H10c0-7.71 2.391-14.578 6.042-18.806.726.571 3.063-.513 3.893-.096.83.416.152 2.333 1.065 2.574z"/>
        <path fill="#FF5252" d="M36 2.434a14.211 14.211 0 0 1-2.03 1.748 15.138 15.138 0 0 1-5.267 2.383C27.516 6.85 26.273 7 24.99 7c-1.28 0-2.52-.15-3.703-.434A15.142 15.142 0 0 1 16.033 4.2 14.12 14.12 0 0 1 14 2.455 25.607 25.607 0 0 1 25.153 0C29.058.024 32.743.898 36 2.434zM48.729 25H1.27C.57 25 0 24.328 0 23.5S.569 22 1.271 22H48.73c.702 0 1.271.672 1.271 1.5s-.569 1.5-1.271 1.5zM32 53.024a40.134 40.134 0 0 0-1.676 4.31l-.216.666H19.884l-.216-.668A42.444 42.444 0 0 0 18 53H31.955l.045.024z"/>
    </g>
</svg>
