<svg xmlns="http://www.w3.org/2000/svg" width="50" height="34" viewBox="0 0 50 34">
    <g fill="none" fill-rule="evenodd">
        <path fill="#C75900" fill-rule="nonzero" d="M31.045 31.176l-.323 1.64a.453.453 0 0 1-.445.367h-4.814a.463.463 0 0 1-.46-.508l.262-2.73 1.352-10.752 6.12-2.315-3.443 12.359a.436.436 0 0 0-.005.162c.016.12.08.23.182.304l1.396 1.017a.453.453 0 0 1 .178.456zM19.518 33.183H15.64a.461.461 0 0 1-.402-.234l-1.5-2.64s-2.186-1.717-2.196-1.752l-1.088-3.832-1.035-3.043 7.974-1.505-1.65 6.866c-.017.08 1.361 2.2 1.361 2.2.002.008.006.016.01.024.039.104.116.19.213.241l1.964 1.032c.116.061.2.17.233.298l.442 1.77a.462.462 0 0 1-.448.575z"/>
        <path fill="#424242" fill-rule="nonzero" d="M8.016 10.884C6.502 9.48 3.846 6.267 3.993 1.076a.735.735 0 0 0-.732-.759A3.258 3.258 0 0 0 .02 3.934c.406 3.6 2.215 8.064 6.034 10.26.909.521 2.074-.172 2.456-1.149a1.969 1.969 0 0 0-.495-2.161z"/>
        <path fill="#000" fill-rule="nonzero" d="M2.26 3.934a3.243 3.243 0 0 1 1.236-2.927c.281-.22.133-.684-.224-.69h-.011A3.258 3.258 0 0 0 .02 3.934c.406 3.6 2.215 8.064 6.034 10.26.59.338 1.287.165 1.809-.265C4.339 11.654 2.65 7.394 2.26 3.934z"/>
        <path fill="#FF7E15" fill-rule="nonzero" d="M50 2.905V4.14a2.741 2.741 0 0 1-2.739 2.743h-6.062c-.218 0-.4.167-.42.385l-.73 8.35a34.158 34.158 0 0 1-2.478 10.112l-1.233 2.973a.468.468 0 0 0 .221.338l2.217 1.31a.467.467 0 0 1 .224.397l-.296 1.97a.464.464 0 0 1-.462.464h-4.87a.462.462 0 0 1-.448-.355l-.678-2.835-.482-7.082c-.048-.202-17.803-.147-17.803-.147a.463.463 0 0 0-.33.123L7.53 27.445a.465.465 0 0 1-.316.124H3.351a.463.463 0 0 0-.462.463v1.563a.459.459 0 0 0 .185.37l1.07.804a.456.456 0 0 1 .171.258l.395 1.58a.463.463 0 0 1-.448.576h-3.8A.463.463 0 0 1 0 32.72v-9.56c0-.18.103-.343.265-.419l3.167-.37a.464.464 0 0 0 .266-.42v-4.495c0-3.77 2.8-6.953 6.534-7.427l18.083-2.295 4.114-5.492A5.545 5.545 0 0 1 36.867.02h2.696c.8 0 1.567.32 2.13.887l.651.658a3 3 0 0 0 2.128.886h5.074c.251 0 .454.203.454.454z"/>
        <g fill="#C75900" fill-rule="nonzero">
            <path d="M28.481 7.83a2.31 2.31 0 0 0 1.52-.803l4.42-5.354A6.576 6.576 0 0 1 36.457.037c-1.93.13-3.716 1.009-4.888 2.428L27 8l1.481-.17zM35.012 32.828l-.679-2.835-.403-5.64a1.271 1.271 0 0 0-1.232-1.18 99.174 99.174 0 0 0-.918-.02l.466 6.84.678 2.835a.462.462 0 0 0 .449.355h2.088a.462.462 0 0 1-.45-.355zM5.52 21.868a.464.464 0 0 0 .266-.419v-3.993c0-2.993 1.931-6.068 4.595-7.446l-.149.02A7.482 7.482 0 0 0 3.7 17.455v4.495a.461.461 0 0 1-.07.244l1.89-.327zM2.12 32.89V22.827c0-.121.048-.235.129-.32l-1.984.233a.463.463 0 0 0-.265.42v9.559c0 .256.207.463.463.463H2.17a.714.714 0 0 1-.051-.294z"/>
        </g>
        <circle cx="40.053" cy="2.987" r="1" fill="#703F2F" fill-rule="nonzero"/>
        <path fill="#262626" fill-rule="nonzero" d="M32.15 12.072c-1.178-.264-1.407-2.607-.688-7.028.232-2.874 2.472-5.012 4.397-4.963l1.486.026-2.113 7.588c-.556 1.994-1.317 4.774-3.083 4.377z"/>
    </g>
</svg>
