<svg xmlns="http://www.w3.org/2000/svg" width="150" height="89" viewBox="0 0 150 89">
    <g fill="none" fill-rule="evenodd">
        <g fill="#424242">
            <path d="M83 26h1v20h-1zM66 26h1v20h-1z"/>
        </g>
        <g fill-rule="nonzero">
            <path fill="#FF991B" d="M53 53h44v36H53z"/>
            <path fill="#FF7E15" d="M90.487 46.1l6.608 7.01h-43.97l6.609-7.01z"/>
        </g>
        <path fill="#424242" d="M61 26h1v63h-1zM88 26h1v63h-1z"/>
        <g fill-rule="nonzero">
            <ellipse cx="74.87" cy="17.16" fill="#BDBDBD" rx="29.721" ry="12.442"/>
            <path fill="#424242" d="M104.59 17.16c0 6.874-13.307 12.443-29.72 12.443-16.413 0-29.721-5.571-29.721-12.443"/>
            <path fill="#BDBDBD" d="M64.077 14.355a8.263 8.263 0 0 1-8.262 8.266c-4.562 0-37.315-3.701-37.315-8.266 0-4.56 32.753-8.261 37.315-8.261a8.262 8.262 0 0 1 8.262 8.26z"/>
            <path fill="#424242" d="M55.813 6.094a8.262 8.262 0 0 1 8.261 8.26l-8.26-8.26zM64.077 14.355c0 4.565 5.318 14.277.753 14.277-4.565 0-46.332-9.71-46.332-14.277"/>
            <path fill="#424242" d="M26.736 16.297a4.759 4.759 0 0 1-4.76 4.761 4.75 4.75 0 0 1-4.751-4.761v-4.258a4.749 4.749 0 0 1 4.752-4.757 4.758 4.758 0 0 1 4.759 4.757v4.258z"/>
            <path fill="#424242" d="M17.37 7.345a4.744 4.744 0 0 0 4.607 3.634 4.745 4.745 0 0 0 4.609-3.634c-.505-2.08-2.37-3.633-4.61-3.633-2.234 0-4.103 1.553-4.606 3.633z"/>
            <ellipse cx="21.974" cy="3.553" fill="#BDBDBD" rx="21.974" ry="3.477"/>
            <ellipse cx="21.977" cy="3.553" fill="#757575" rx="12.209" ry="3.477"/>
            <path fill="#F5F5F5" d="M43.81 3.557c0 .34-.269.609-.61.609H.749a.603.603 0 0 1-.604-.609c0-.339.27-.613.604-.613H43.2c.34 0 .61.274.61.613z"/>
            <path fill="#BDBDBD" d="M85.663 14.355a8.264 8.264 0 0 0 8.266 8.266c4.557 0 37.308-3.701 37.308-8.266 0-4.56-32.75-8.261-37.308-8.261a8.263 8.263 0 0 0-8.266 8.26z"/>
            <path fill="#424242" d="M93.929 6.094a8.263 8.263 0 0 0-8.266 8.26l8.266-8.26z"/>
            <g fill="#424242">
                <path d="M85.663 14.355c0 4.565-5.318 14.277-.753 14.277 4.564 0 46.33-9.71 46.33-14.277"/>
                <path d="M123.002 16.297a4.761 4.761 0 0 0 4.761 4.761c2.63 0 4.752-2.129 4.752-4.761v-4.258a4.75 4.75 0 0 0-4.752-4.757 4.76 4.76 0 0 0-4.761 4.757v4.258z"/>
            </g>
            <path fill="#424242" d="M132.37 7.345a4.742 4.742 0 0 1-4.607 3.634c-2.24 0-4.1-1.55-4.612-3.634.513-2.08 2.373-3.633 4.612-3.633a4.747 4.747 0 0 1 4.607 3.633z"/>
            <ellipse cx="127.77" cy="3.553" fill="#BDBDBD" rx="21.977" ry="3.477"/>
            <ellipse cx="127.77" cy="3.553" fill="#757575" rx="12.209" ry="3.477"/>
            <path fill="#F5F5F5" d="M105.93 3.557c0 .34.268.609.607.609h42.454a.611.611 0 0 0 0-1.221h-42.454a.61.61 0 0 0-.608.612z"/>
        </g>
        <ellipse cx="75" cy="25.5" fill="#424242" rx="16" ry="8.5"/>
        <rect width="16" height="8" x="67" y="58" fill="#FFF" rx="2"/>
        <rect width="10" height="1" x="70" y="60" fill="#FF991B" rx=".5"/>
        <rect width="10" height="1" x="70" y="63" fill="#FF991B" rx=".5"/>
    </g>
</svg>
