<svg xmlns="http://www.w3.org/2000/svg" width="59" height="59" viewBox="0 0 59 59">
    <g fill="none" fill-rule="nonzero">
        <path fill="#FFAB42" d="M0 15.009L29.5 0 59 15.009v1.982L29.5 32 0 17.039z"/>
        <path fill="#FF991B" d="M0 15l29.5 14.651L59 15v29.349L29.408 59 0 44.349z"/>
        <path fill="#FF7E15" d="M29 58.954V29.59L.181 15H0v29.318L28.91 59z"/>
        <path fill="#F5F5F5" d="M12 9.016L41.083 24 47 20.984 17.826 6z"/>
        <path fill="#D7D7D7" d="M42 22.946L48 20v9.205l-1.615-.276L44.677 31 42 30.816v-7.87z"/>
        <path fill="#F2F2F2" d="M18.942 31.307l-9.93-5.204C8.46 25.814 8 26.151 8 26.874v6.987c0 .723.46 1.542 1.012 1.832l9.976 5.204c.552.289 1.012-.048 1.012-.771V33.09c-.046-.723-.506-1.493-1.058-1.783zm-2.252 5.735l-6.345-3.325c-.276-.145-.506-.578-.506-.964 0-.385.23-.578.506-.434l6.345 3.325c.275.145.505.578.505.964s-.23.578-.505.434zm.92-2.41l-7.265-3.855c-.276-.144-.506-.578-.506-.963 0-.386.23-.579.506-.434l7.264 3.855c.276.144.506.578.506.964 0 .433-.23.578-.506.433z"/>
    </g>
</svg>
