<svg xmlns="http://www.w3.org/2000/svg" width="118" height="79" viewBox="0 0 118 79">
    <g fill="none" fill-rule="nonzero">
        <g fill="#262626">
            <path d="M52.4 11.489l6.136 9.052L38.358 29.4c-4.06-.273-4.239-10.33-9.526-13.383-2.19-1.262.122-1.06.457-3.788.31-2.52-.274-3.094 1.197-4.452 6.667-6.149 19.526-4.274 21.918 3.711H52.4z"/>
            <path d="M67.32 28.006c17.668 23.289 22.205 26.147 38.246 37.787 8.108 4.279.847 4.645-4.964 2.654-12.183-4.175-32.683-13.379-37.104-12.898-6.885 2.123-15.837-1.41-21.673-9.098-6.925-9.13-6.83-20.657.21-25.748 7.039-5.094 18.36-1.823 25.284 7.307l.001-.004z"/>
        </g>
        <path fill="#BDBDBD" d="M12.03 13.931l-5.884 5.17 8.727-3.138 14.857-2.214.638-3.61c-.25-.218-1.064-.692-.594-1.537l-17.739 5.326-.005.003z"/>
        <path fill="#767676" d="M5.84 19.145l9.029-3.18 14.856-2.214.417 2.86-14.978 1.268-9.324 1.27z"/>
        <path fill="#FF7E15" d="M62.956 60.507s.502 1.366.41 2.114c-.027.219-.076.302-.59.496l-4.505.942c1.612 2.122.812 3.06-.432 3.838.348-1.85-.399-2.05-1.213-2.715-.406.612-.775.796-.79 2.695-.016 1.898 1.415 3.281 1.415 3.281s-1.64.601-2.894-1.01c-1.255-1.606-.372-3.503-.372-3.503-2.707 3.235-.89 3.656.095 5.222-4.291-.134-3.77-4.723-2.4-5.606-1.56 1.416-2.15 3.17-.776 5.24-2.66.032-3.015-2.789-1.162-5.377 1.454-1.979 7.55-3.707 10.218-4.15l-.47-1.118c.347-1.118 1.412-1.353 3.474-.352l-.008.003z"/>
        <path fill="#262626" d="M60.181 51.735l.074.192 2.891 7.66s.262.885.075 1.166c-.186.281-1.174-.358-2.168-.036-.994.322-1.4.875-1.4.875s-.703-.242-.657-.84c.046-.597-6.006-8.113-6.121-7.839-.112.275 7.302-1.175 7.302-1.175l.004-.003z"/>
        <path fill="#FFF" d="M34.972 9.368a2.18 2.18 0 1 1-.531 4.327 2.18 2.18 0 0 1 .531-4.327z"/>
        <path fill="#333" d="M34.471 10.463a1.093 1.093 0 1 1-.264 2.17 1.093 1.093 0 0 1 .264-2.17z"/>
        <path fill="#424242" d="M57.4 21.036c-9.195 2.513-9.785 14.069-4.6 19.106 15.976 15.526 51.034 19.421 51.034 19.421-27.745-19.3-37.238-41.043-46.433-38.53v.003z"/>
        <path fill="#FF7E15" d="M73.176 61.762s.502 1.366.41 2.114c-.026.219-.072.303-.59.496l-4.5.943c1.612 2.122.811 3.06-.433 3.837.348-1.85-.399-2.05-1.213-2.715-.406.612-.775.797-.79 2.695-.015 1.898 1.415 3.282 1.415 3.282s-1.639.6-2.894-1.01c-1.255-1.607-.372-3.504-.372-3.504-2.707 3.235-.89 3.657.095 5.222-4.291-.133-3.77-4.723-2.4-5.606-1.56 1.417-2.15 3.17-.776 5.24-2.66.032-3.015-2.788-1.162-5.377 1.454-1.979 7.55-3.707 10.218-4.15l-.47-1.117c.351-1.118 1.412-1.353 3.474-.352l-.012.002z"/>
        <path fill="#262626" d="M70.406 52.99l.073.192 2.896 7.661s.261.885.075 1.166c-.187.281-1.175-.358-2.17-.036-.993.322-1.4.875-1.4.875s-.702-.242-.655-.84c.046-.597-6.006-8.113-6.122-7.839-.115.274 7.302-1.175 7.302-1.175v-.004z"/>
    </g>
</svg>
