<svg xmlns="http://www.w3.org/2000/svg" width="20" height="20" viewBox="0 0 20 20">
    <path fill="#BDBDBD" fill-rule="evenodd" d="M15.027 8.88c.453.427.493.867.493 1.307 0 3.106-2.467 5.6-5.507 5.6-3.04 0-5.52-2.494-5.52-5.6 0-.44.054-.88.174-1.307H0v9.333C0 19.187.76 20 1.667 20h16.666C19.24 20 20 19.187 20 18.213V8.88h-4.973zm-1.787 1.4c0 1.947-1.533 3.533-3.4 3.533s-3.387-1.586-3.387-3.533c0-1.947 1.52-3.52 3.387-3.52s3.4 1.573 3.4 3.52zm5.4-6.173c0 .32-.307.586-.693.586h-2.654c-.386 0-.72-.266-.72-.586V1.933c0-.32.334-.56.72-.56h2.654c.386 0 .693.24.693.56v2.174zM18.213 0H1.667C.76 0 0 .813 0 1.72v4.32h6.453c1.014-.733 2.094-1.36 3.387-1.36 1.267 0 2.4.627 3.4 1.36H20V1.72C20 .813 19.187 0 18.213 0z"/>
</svg>
