<svg xmlns="http://www.w3.org/2000/svg" width="20" height="14" viewBox="0 0 20 14">
    <path fill="#BDBDBD" fill-rule="evenodd" d="M15.906 2.14s0-.153 0 0c-.788-.765-1.733-1.07-2.678-.917.945-.153 1.418-.459 1.575-.612 0-.153 0-.305-.157-.305-.473 0-.945.152-1.26.305.472-.305.63-.458.63-.611-.473 0-.945.306-1.575.764.157-.306.315-.458.157-.611-.315.153-.472.305-.63.611-.472.459-.787.764-.944 1.223-.63 1.07-1.103 1.986-1.418 3.056H9.45A3.682 3.682 0 0 0 8.03 3.82c-.63-.458-1.417-.764-2.362-1.222-.945-.459-1.89-.917-2.992-1.223 0 1.07.473 1.987 1.575 2.598-.315 0-.787 0-1.102.153 0 .917.787 1.681 2.204 1.987-.472 0-.945.152-1.417.458.472.917 1.26 1.223 2.52 1.223-.158.152-.473.305-.473.305-.157.153-.315.459-.157.764.315.459.63.612 1.417.612-1.102 1.07-2.52 1.68-4.094 1.528-.945 0-2.048-.459-3.15-1.376 1.102 1.529 2.677 2.751 4.567 3.515 2.205.612 4.41.764 6.457.153a11.26 11.26 0 0 0 5.354-3.515c.63-.917 1.102-1.834 1.26-2.75 1.102 0 1.89-.306 2.362-.917-.315.152-1.102.152-2.205-.153 1.103-.153 1.89-.459 2.048-1.07a3.157 3.157 0 0 1-2.363 0c-.157-1.07-.63-1.986-1.574-2.75z"/>
</svg>
