<svg xmlns="http://www.w3.org/2000/svg" width="20" height="21" viewBox="0 0 20 21">
    <path fill="#E0E0E0" fill-rule="nonzero" d="M10 .926C4.486.926 0 5.574 0 11.088c0 5.514 4.486 9.93 10 9.93s10-4.416 10-9.93C20 5.574 15.514.926 10 .926zm0 2.088c4.426 0 8 3.648 8 8.074 0 4.427-3.574 7.895-8 7.895s-8-3.468-8-7.895c0-4.426 3.574-8.074 8-8.074zM8.183 7.136A.785.785 0 0 0 8 7.648v6.563a.73.73 0 0 0 .332.636c.185.11.406.105.588-.014l4.768-3.36a.749.749 0 0 0 .311-.626.749.749 0 0 0-.311-.626L8.92 7.02a.553.553 0 0 0-.298-.093.577.577 0 0 0-.44.21z"/>
</svg>
